<svg width="260" height="260" viewBox="0 0 260 260" xmlns="http://www.w3.org/2000/svg">
  <defs>
    <linearGradient id="g1" x1="0" y1="0" x2="1" y2="1">
      <stop offset="0" stop-color="#0E6B54" stop-opacity="0.25"></stop>
      <stop offset="1" stop-color="#0E6B54" stop-opacity="0"></stop>
    </linearGradient>
    <linearGradient id="g2" x1="1" y1="0" x2="0" y2="1">
      <stop offset="0" stop-color="#6FA892" stop-opacity="0.25"></stop>
      <stop offset="1" stop-color="#6FA892" stop-opacity="0"></stop>
    </linearGradient>
  </defs>

  <!-- blobby protein-ish shapes -->
  <path d="M40 40 C 70 10, 130 10, 160 40 C 190 70, 190 130, 160 160 C 130 190, 70 190, 40 160 C 10 130, 10 70, 40 40Z" fill="url(#g1)"></path>
  <path d="M140 120 C 170 90, 220 90, 240 120 C 260 150, 230 190, 190 195 C 160 200, 130 180, 130 150 C 130 140, 135 130, 140 120Z" fill="url(#g2)"></path>
  <circle cx="90" cy="210" r="26" fill="#0E6B54" fill-opacity="0.06"></circle>
  <circle cx="210" cy="60" r="18" fill="#0E6B54" fill-opacity="0.05"></circle>
</svg>
